<svg width="666" height="157" viewBox="0 0 666 157" fill="none" xmlns="http://www.w3.org/2000/svg">
<path d="M274.641 2.52295H303.2V28.9875H326.618V51.8345H303.2V89.5321H274.641V2.52295ZM169.735 126.849C169.735 122.407 171.385 118.345 174.685 114.664C177.985 110.983 182.618 107.873 188.584 105.335C194.676 102.669 201.975 100.638 210.479 99.2421C218.983 97.719 228.376 96.9574 238.657 96.9574C248.938 96.9574 258.267 97.719 266.644 99.2421C275.149 100.638 282.383 102.669 288.349 105.335C294.442 107.873 299.138 110.983 302.438 114.664C305.738 118.345 307.388 122.407 307.388 126.849C307.388 131.291 305.738 135.353 302.438 139.034C299.138 142.715 294.442 145.888 288.349 148.554C282.383 151.092 275.149 153.123 266.644 154.646C258.267 156.042 248.938 156.741 238.657 156.741C228.376 156.741 218.983 156.042 210.479 154.646C201.975 153.123 194.676 151.092 188.584 148.554C182.618 145.888 177.985 142.715 174.685 139.034C171.385 135.353 169.735 131.291 169.735 126.849ZM199.055 126.849C199.055 129.641 202.673 131.863 209.908 133.513C217.142 135.163 226.725 135.988 238.657 135.988C250.461 135.988 259.981 135.163 267.216 133.513C274.45 131.863 278.068 129.641 278.068 126.849C278.068 124.057 274.45 121.835 267.216 120.185C259.981 118.535 250.461 117.71 238.657 117.71C226.725 117.71 217.142 118.535 209.908 120.185C202.673 121.835 199.055 124.057 199.055 126.849Z" fill="#16125D"/>
<path d="M154.694 58.879C160.279 56.3405 165.356 53.4846 169.925 50.3114C174.622 47.0112 178.62 43.5207 181.92 39.8398C185.22 36.1589 187.759 32.3511 189.536 28.4163C191.313 24.3546 192.201 20.4198 192.201 16.612V2.52295H220.76V16.612C220.76 23.8469 219.237 30.9548 216.19 37.9359C213.271 44.9169 209.082 51.4537 203.625 57.5463C198.801 63.0042 193.09 67.9544 186.489 72.3969C180.016 76.7124 172.781 80.3298 164.785 83.2492L154.694 58.879Z" fill="#16125D"/>
<path fill-rule="evenodd" clip-rule="evenodd" d="M218.03 55.9124C213.691 57.7493 208.842 58.6678 203.482 58.6678C208.842 58.6678 213.691 59.5862 218.03 61.4231C222.496 63.26 226.261 65.8842 229.323 69.2956C232.513 72.5758 234.938 76.6432 236.597 81.4979C238.383 86.2214 239.277 91.4697 239.277 97.2428C239.277 91.4697 240.106 86.2214 241.765 81.4979C243.424 76.6432 245.785 72.5758 248.847 69.2956C252.038 65.8842 255.802 63.26 260.141 61.4231C264.607 59.5862 269.52 58.6678 274.879 58.6678C269.52 58.6678 264.607 57.7493 260.141 55.9124C255.802 54.0755 252.038 51.4514 248.847 48.04C245.785 44.6286 243.424 40.5612 241.765 35.8377C240.106 30.983 239.277 25.6691 239.277 19.896C239.277 25.6691 238.383 30.983 236.597 35.8377C234.938 40.5612 232.513 44.6286 229.323 48.04C226.261 51.4514 222.496 54.0755 218.03 55.9124Z" fill="#FBE41C"/>
<path d="M628.77 107.619V2.52295H657.329V107.619H628.77ZM605.161 95.2439H511.679V4.04609H605.161V95.2439ZM540.999 104.954V132.561H665.135V155.408H512.44V104.954H540.999Z" fill="#16125D"/>
<path fill-rule="evenodd" clip-rule="evenodd" d="M536.649 46.9881C532.31 48.825 527.461 49.7435 522.102 49.7435C527.461 49.7435 532.31 50.6619 536.649 52.4988C541.115 54.3357 544.88 56.9599 547.942 60.3713C551.133 63.6515 553.557 67.7189 555.216 72.5736C557.003 77.297 557.896 82.5453 557.896 88.3185C557.896 82.5453 558.725 77.297 560.384 72.5736C562.043 67.7189 564.404 63.6515 567.466 60.3713C570.657 56.9599 574.421 54.3357 578.76 52.4988C583.226 50.6619 588.139 49.7435 593.499 49.7435C588.139 49.7435 583.226 48.825 578.76 46.9881C574.421 45.1512 570.657 42.5271 567.466 39.1157C564.404 35.7043 562.043 31.6369 560.384 26.9134C558.725 22.0587 557.896 16.7448 557.896 10.9717C557.896 16.7448 557.003 22.0587 555.216 26.9134C553.557 31.6369 551.133 35.7043 547.942 39.1157C544.88 42.5271 541.115 45.1512 536.649 46.9881Z" fill="#FBE41C"/>
<path fill-rule="evenodd" clip-rule="evenodd" d="M32.1763 66.6372C25.576 69.4296 18.1507 71.4605 9.90039 72.7298L14.6602 97.1C26.4645 95.323 37.1899 92.3402 46.8365 88.1515C56.483 83.9629 64.7333 78.8223 71.5874 72.7298C78.4415 66.6372 83.7091 59.7831 87.39 52.1674C91.1978 44.4248 93.1017 36.1745 93.1017 27.4165V0H64.5429V27.4165C64.5429 32.8744 63.2102 38.0784 60.5447 43.0286C58.0061 47.9788 54.3252 52.4213 49.5019 56.3561C44.6787 60.2908 38.9035 63.7179 32.1763 66.6372ZM63.591 124.707H0V147.554H157.454V124.707H92.1498V88.1515H63.591V124.707Z" fill="#16125D"/>
<path d="M85.486 69.3027C90.817 69.3027 95.6403 68.4142 99.9558 66.6372C104.398 64.8602 108.143 62.3217 111.189 59.0215C114.362 55.7214 116.774 51.7867 118.424 47.2172C120.201 42.5209 121.089 37.3803 121.089 31.7955C121.089 37.3803 121.914 42.5209 123.564 47.2172C125.215 51.7867 127.563 55.7214 130.609 59.0215C133.782 62.3217 137.527 64.8602 141.842 66.6372C146.285 68.4142 151.171 69.3027 156.502 69.3027C151.171 69.3027 146.285 70.1912 141.842 71.9682C137.527 73.7452 133.782 76.2838 130.609 79.5839C127.563 82.7571 125.215 86.6919 123.564 91.3882C121.914 95.9576 121.089 101.035 121.089 106.62C121.089 101.035 120.201 95.9576 118.424 91.3882C116.774 86.6919 114.362 82.7571 111.189 79.5839C108.143 76.2838 104.398 73.7452 99.9558 71.9682C95.6403 70.1912 90.817 69.3027 85.486 69.3027Z" fill="#FBE41C"/>
<path d="M346.466 5.85498H481.645V103.526H453.086V28.702H346.466V5.85498ZM334.091 131.133H381.879V76.4904H410.438V131.133H491.545V153.98H334.091V131.133Z" fill="#16125D"/>
</svg>
